<svg id="圖層_1" data-name="圖層 1" xmlns="http://www.w3.org/2000/svg" xmlns:xlink="http://www.w3.org/1999/xlink" viewBox="0 0 47.85 49.01"><defs><style>.cls-1{fill:url(#未命名漸層_86);}.cls-2{fill:url(#未命名漸層_86-2);}.cls-3{clip-path:url(#clip-path);}.cls-4{fill:url(#未命名漸層_86-4);}.cls-5{fill:url(#未命名漸層_86-9);}.cls-6{fill:url(#未命名漸層_86-21);}</style><linearGradient id="未命名漸層_86" x1="24.66" y1="6.81" x2="24.66" y2="40.35" gradientUnits="userSpaceOnUse"><stop offset="0" stop-color="#ebddd7"/><stop offset="1" stop-color="#a5b1c6"/></linearGradient><linearGradient id="未命名漸層_86-2" x1="23.92" y1="6.81" x2="23.92" y2="40.35" xlink:href="#未命名漸層_86"/><clipPath id="clip-path"><path class="cls-1" d="M22.1,23.6l-.72,1.94a1.12,1.12,0,0,1-1.53.62,70.92,70.92,0,0,0-7.19-2.66,1.13,1.13,0,0,1-.75-1.35l.48-1.93a1.13,1.13,0,0,1,1.35-.82,36,36,0,0,1,7.81,2.79A1.13,1.13,0,0,1,22.1,23.6ZM37,18.85a1.13,1.13,0,0,1,.31,1.43,35.6,35.6,0,0,1-8.93,11.3,39.78,39.78,0,0,1-12.82,6.24,1.13,1.13,0,0,1-1.36-.61l-.93-2.06A1.13,1.13,0,0,1,14,33.61q7.57-2.24,11.75-5.53T33.6,17.9a1.12,1.12,0,0,1,1.67-.37ZM24.2,16.14,23,18a1.13,1.13,0,0,1-1.51.37,48.91,48.91,0,0,0-6.68-3.12,1.11,1.11,0,0,1-.63-1.51l.87-1.91a1.13,1.13,0,0,1,1.43-.59,56.79,56.79,0,0,1,7.31,3.34A1.12,1.12,0,0,1,24.2,16.14Z"/></clipPath><linearGradient id="未命名漸層_86-4" x1="19.24" y1="6.81" x2="19.24" y2="40.35" xlink:href="#未命名漸層_86"/><linearGradient id="未命名漸層_86-9" x1="25.27" y1="6.81" x2="25.27" y2="40.35" xlink:href="#未命名漸層_86"/><linearGradient id="未命名漸層_86-21" x1="17.03" y1="6.81" x2="17.03" y2="40.35" xlink:href="#未命名漸層_86"/></defs><title>logo</title><path class="cls-2" d="M41.9,49H6A6,6,0,0,1,0,43.06V6A6,6,0,0,1,6,0H41.9a6,6,0,0,1,6,6V43.06A6,6,0,0,1,41.9,49ZM6,4.93a1,1,0,0,0-1,1V43.06a1,1,0,0,0,1,1H41.9a1,1,0,0,0,1-1V6a1,1,0,0,0-1-1Z"/><path class="cls-1" d="M22.1,23.6l-.72,1.94a1.12,1.12,0,0,1-1.53.62,70.92,70.92,0,0,0-7.19-2.66,1.13,1.13,0,0,1-.75-1.35l.48-1.93a1.13,1.13,0,0,1,1.35-.82,36,36,0,0,1,7.81,2.79A1.13,1.13,0,0,1,22.1,23.6ZM37,18.85a1.13,1.13,0,0,1,.31,1.43,35.6,35.6,0,0,1-8.93,11.3,39.78,39.78,0,0,1-12.82,6.24,1.13,1.13,0,0,1-1.36-.61l-.93-2.06A1.13,1.13,0,0,1,14,33.61q7.57-2.24,11.75-5.53T33.6,17.9a1.12,1.12,0,0,1,1.67-.37ZM24.2,16.14,23,18a1.13,1.13,0,0,1-1.51.37,48.91,48.91,0,0,0-6.68-3.12,1.11,1.11,0,0,1-.63-1.51l.87-1.91a1.13,1.13,0,0,1,1.43-.59,56.79,56.79,0,0,1,7.31,3.34A1.12,1.12,0,0,1,24.2,16.14Z"/><g class="cls-3"><rect class="cls-4" x="13.93" y="11" width="10.61" height="0.74"/><rect class="cls-4" x="13.93" y="11.74" width="10.61" height="1.93"/><rect class="cls-4" x="13.93" y="13.67" width="10.61" height="1.93"/><rect class="cls-4" x="13.93" y="15.6" width="10.61" height="1.93"/><rect class="cls-4" x="13.93" y="17.52" width="10.61" height="1.11"/><rect class="cls-5" x="12.98" y="17.11" width="24.59" height="0.41"/><rect class="cls-5" x="12.98" y="17.52" width="24.59" height="1.93"/><rect class="cls-5" x="12.98" y="19.45" width="24.59" height="1.93"/><rect class="cls-5" x="12.98" y="21.38" width="24.59" height="1.93"/><rect class="cls-5" x="12.98" y="23.31" width="24.59" height="1.93"/><rect class="cls-5" x="12.98" y="25.24" width="24.59" height="1.93"/><rect class="cls-5" x="12.98" y="27.16" width="24.59" height="1.93"/><rect class="cls-5" x="12.98" y="29.09" width="24.59" height="1.93"/><rect class="cls-5" x="12.98" y="31.02" width="24.59" height="1.93"/><rect class="cls-5" x="12.98" y="32.95" width="24.59" height="1.93"/><rect class="cls-5" x="12.98" y="34.88" width="24.59" height="1.93"/><rect class="cls-5" x="12.98" y="36.8" width="24.59" height="1.19"/><rect class="cls-6" x="11.76" y="19.25" width="10.53" height="0.2"/><rect class="cls-6" x="11.76" y="19.45" width="10.53" height="1.93"/><rect class="cls-6" x="11.76" y="21.38" width="10.53" height="1.93"/><rect class="cls-6" x="11.76" y="23.31" width="10.53" height="1.93"/><rect class="cls-6" x="11.76" y="25.24" width="10.53" height="1.2"/></g></svg>